<?xml version="1.0" encoding="utf-8"?>
<!-- Generator: Adobe Illustrator 16.0.0, SVG Export Plug-In . SVG Version: 6.00 Build 0)  -->
<!DOCTYPE svg PUBLIC "-//W3C//DTD SVG 1.1//EN" "http://www.w3.org/Graphics/SVG/1.1/DTD/svg11.dtd">
<svg version="1.1"
	 id="svg2" sodipodi:docname="Walt_Disney_Imagineering.svg" inkscape:version="0.48.4 r9939" xmlns:dc="http://purl.org/dc/elements/1.1/" xmlns:cc="http://creativecommons.org/ns#" xmlns:rdf="http://www.w3.org/1999/02/22-rdf-syntax-ns#" xmlns:svg="http://www.w3.org/2000/svg" xmlns:sodipodi="http://sodipodi.sourceforge.net/DTD/sodipodi-0.dtd" xmlns:inkscape="http://www.inkscape.org/namespaces/inkscape"
	 xmlns="http://www.w3.org/2000/svg" xmlns:xlink="http://www.w3.org/1999/xlink" x="0px" y="0px" width="242.895px"
	 height="69.448px" viewBox="2.766 1.732 242.895 69.448" enable-background="new 2.766 1.732 242.895 69.448" xml:space="preserve"
	>
<title  id="title3363">Walt Disney Imagineering logo</title>
<sodipodi:namedview  inkscape:current-layer="svg2" inkscape:window-maximized="1" inkscape:window-y="-4" inkscape:window-x="-4" inkscape:showpageshadow="false" inkscape:window-height="844" inkscape:window-width="1600" inkscape:pageshadow="2" inkscape:pageopacity="0" inkscape:cy="49.350395" inkscape:cx="20.882691" inkscape:zoom="2.1421913" showgrid="false" guidetolerance="10" gridtolerance="10" objecttolerance="10" pagecolor="#ffffff" bordercolor="#666666" borderopacity="1" id="namedview334">
	</sodipodi:namedview>
<path id="path284" inkscape:connector-curvature="0" fill="red" d="M74.365,49.445c-1.83,1.057-3.579,1.58-5.521,0.967
	c-3.376-1.53-3.657-5.6-3.07-8.844c0.922-5.111,2.135-11.458,4.909-14.466c0.93-1.214,2.144-0.891,2.271,1.153
	c0.064,0.573-0.073,1.352-0.329,2.682c-0.922,4.245-2.608,8.18-2.812,12.729c-0.057,0.821,0.59,1.074,1.26,0.753
	c2.717-0.671,3.422-1.344,6.005-2.016c1.406-0.447,1.433,0.613,1.452,1.133C78.385,46.533,74.964,49.156,74.365,49.445"/>
<path fill="red" d="M93.124,28.689c-0.714-0.613-1.585-0.922-2.554-0.973c-2.504-0.154-4.757,1.639-6.291,3.835
	c-2.506-0.203-4.65-0.603-6.696-2.396c-0.768-0.703-0.962-1.854-1.021-2.406c-0.973,0.865-1.639,2.299-1.33,3.676
	c0.821,3.017,3.373,4.161,6.496,5.42c-0.871,2.097-1.502,4.302-1.844,6.595c-0.602,4.093-1.756,11.66,2.683,14.769
	c0.869,0.512,3.268,1.173,2.748-1.281c-0.349-6.916-0.419-12.774,1.572-18.856C96.817,37.72,95.091,30.752,93.124,28.689z
	 M91.617,31.319c-0.388,0.383-2.432,0.897-3.327,0.771c0.191-0.641,0.645-1.254,1.055-1.769
	C90.655,28.637,93.529,30.172,91.617,31.319z"/>
<path fill="red" d="M61.122,26.486c-0.306-0.97-1.178-1.488-2.35-0.97c-0.597,0.152-0.702,0.947-0.807,1.4
	c-0.039,0.171-0.372,0.579-0.508,0.702c-3.431,3.784-5.281,7.714-7.374,12.11c-0.846-0.052-1.26,0.141-2.49-0.171l-0.265,0.475
	c0.45,0.922,0.917,2.37,1.525,3.021c-1.124,2.707-2.227,5.715-1.076,8.079c0.764,1.341,2.873,1.788,3.64,0l2.45-6.594l6.523,0.031
	c0,1.481,0.045,3.657,0.554,4.936c1.923,2.769,3.385,2.46,3.537,0.69C65.092,44.631,63.141,31.773,61.122,26.486z M56.174,39.505
	c0.31-1.889,1.813-4.914,2.749-5.813c0.661,1.799,0.78,3.615,0.83,5.56C58.577,39.303,57.402,39.611,56.174,39.505z"/>
<path fill="red" d="M49.315,20.708c-1.74-7.46-5.356-15.228-12.669-18.609c-1.383-0.829-1.441-0.051-1.29,0.36
	c1.632,1.363,3.071,2.962,4.143,4.649c6.389,9.665,5.573,24.289,0.152,34.102c-2.451,4.292-4.851,6.138-7.93,7.446
	c-3.924,1.691-8.262-0.855-8.611-3.342c5.165-4.192,9.69-9.623,9.898-16.375c0.326-5.937-2.37-9.788-6.098-8.942
	c-10.968,2.819-12.34,13.535-9.6,25.505c-1.48,1.131-3.834,1.541-5.521,0.619c-2.814-1.484-3.221-4.604-3.426-7.466
	C8.519,26.898,12.61,16.773,21.349,8.593c0.462-0.41,0.719-1.125,0.256-1.586c-0.665-0.354-1.253-0.146-1.942,0.102
	C5.368,15.416,3.226,31.583,3.07,32.606c-0.831,5.555-0.33,13.257,6.266,16.226c2.759,1.378,6.389,0.613,8.944-0.613
	c1.279,2.299,3.427,4.7,5.882,5.619c5.776,2.557,11.655-0.509,16.103-4.14c3.324-2.654,5.171-6.467,7.063-9.686l0.143-0.488
	C49.417,33.797,50.541,27.151,49.315,20.708z M24.815,23.938c0.676-1.2,1.597-2.043,2.522-0.276
	c1.614,4.461,0.147,11.756-5.226,17.699C21.733,35.93,22.568,29.206,24.815,23.938z"/>
<path id="path290" inkscape:connector-curvature="0" fill="red" d="M222.825,34.822c-2.767,0.562-5.724,0.512-8.691,0.512
	c-0.403,0.97-0.715,2.001-1.022,3.024c0,0-0.266,0.244,0.459,0.191c2.285,0.085,3.988-0.064,6.136,0.45
	c0.894-0.128,0.562,1.805,0.411,2.57c-0.86,1.006-7.314,0.368-8.232,0.77c-0.703,1.315-1.123,2.913-1.688,4.394
	c-0.141,0.379,0.091,0.272,0.255,0.256c3.221-0.203,8.522-1.963,9.563-1.125c0.662,0.714,1.551,2.165,0.729,2.749
	c-3.132,2.407-11.265,7.956-14.843,1.957c-2.039-2.861,1.093-7.719,0.961-8.644c-0.032-0.52-0.245-1.453-0.448-1.97
	c-0.196-0.768,1.378-0.838,2.046-1.198c0.715-1.175,1.125-2.485,1.636-3.764c-1.534-0.565-4.024-0.961-3.94-2.73
	c0.3-1.332,13.459-2.512,15.187-1.941c1.327,0.616,2.198,1.791,2.815,3.068C224.354,34.259,223.539,34.72,222.825,34.822"/>
<path id="path292" inkscape:connector-curvature="0" fill="red" d="M201.596,49.53c-0.527,0.467-2.352,2.288-4.977-0.697
	c-3.278-4.082-3.555-6.443-6.207-10.434c0,0-0.27-0.183-0.416,0.618c-0.072,1.096-0.811,11.298-0.811,11.298
	c-0.052,0.75-0.719,1.633-1.586,1.585c-0.921-0.106-2.046-0.706-2.276-2.482c-0.72-6.19,1.12-14.098,2.993-17.207
	c0.459-0.713,1.273-0.863,1.89-0.456c3.282,3.371,5.216,8.009,8.382,12.046c0.876,0.95,0.876,0.292,0.921-0.236
	c0.05-5.623-1.837-10.429-2.962-15.596c-0.236-0.922-0.152-1.633,0.872-1.327C203.475,29.95,206.555,45.521,201.596,49.53"/>
<path id="path294" inkscape:connector-curvature="0" fill="red" d="M182.266,33.844c-5.498,0.768-10.389,0.419-15.629,1.951
	c-1.086,0.255-1.404,0.894-0.253,1.276c5.302,0.962,10.705,0.287,14.538,2.075c2.396,1.248,3.127,3.376,2.874,5.675
	c-0.254,1.386-0.097,3.433-2.458,4.838c-2.182,1.727-11.38,4.352-16.747-1.34c-2.042-1.786-1.716-4.298-0.405-5.521
	c2.812-2.353,8.078-1.096,8.94-0.902c2.938,0.703,5.204,1.276,4.253,2.418c-3.208,2.845-8.82-0.584-10.572-0.584
	c-0.554-0.135-1.734,0.05-2.009,1.164c-0.297,0.995,0.753,1.827,1.968,1.954c5.848,0.896,10.446-0.574,13.111-2.207
	c0.566-0.36,1.018-1.085,0.15-1.85c-3.808-3.165-11.951-2.238-14.09-2.749c-4.856-0.512-4.024-3.289-3.901-4.343
	c1.473-6.52,16.519-6.553,21.151-4.827C185.656,31.476,184.053,33.585,182.266,33.844"/>
<path fill="red" d="M141.841,19.996c-12.132-9.73-26.846-15.818-43.451-14.72c-3.453,0.223-8.309,1.054-9.713,4.442
	c-0.407,0.663-0.661,1.569,0.407,2.305c0.537,0.214,3.957,0.795,4.552,0c0.237-1.208-1.486-1.208-2.461-1.399
	c-0.493,0.126-0.816-0.576,0.146-0.771c15.624-3.199,30.87,2.873,41.833,9.786c10.552,6.16,22.299,23.189,2.638,29.789
	c-5.876,1.316-13.796,1.647-17.57,0.017V34.844c6.291,0.062,12.183,1.523,13.972,2.479c0.895,0.318,1.275,1.665,0.709,2.17
	c-1.151,1.153-1.631,0.973-2.457,1.465c-0.467,0.913,2.591,1.15,2.479,1.043c1.975,0,4.087-1.852,4.521-3.244
	c0.412-1.535,0.08-3.786-2.93-5.574c-4.02-2.814-9.709-3.438-16.354-3.388l-0.241-5.763c-0.258-2.046-0.421-2.619-1.254-4.027
	c-0.383-0.701-1.891-1.586-2.219-0.479c-1.102,2.78-1.525,10.842-1.525,10.842c-2.176,0.318-9.207,1.434-12.743,4.02
	c-3.071,1.85-3.45,4.279-1.66,6.387c1.085,2.108,8.198,8.144,13.773,10.958c0.255,1.841,0.412,4.728,2.173,5.307
	c0.764,0.04,1.306,0.095,2.138-0.099c0.377-0.205,0.767-0.148,0.958-0.508c0.46-0.718,0.286-1.89,0.511-2.688
	c8.338,2.456,19.122,1.833,26.329-2.566c3.785-2.247,6.799-6.081,7.615-10.222C153.702,32.314,146.254,23.678,141.841,19.996z
	 M112.041,47.705c-3.271-1.295-9.813-4.759-12.54-8.324c-0.701-0.896-0.316-1.661,0.884-2.204c2.569-1.248,8.078-1.843,12.269-1.945
	L112.041,47.705z"/>
<path id="path298" inkscape:connector-curvature="0" fill="red" d="M155.242,50.67c-0.664-6.493-0.557-12.768,0.595-18.901
	c0.449-1.597,1.151-2.047,2.063-1.344c0.877,0.771,1.434,2.593,1.545,4.222c0.312,4.223,0.502,13.876,0.377,15.489
	C159.861,53.08,155.251,52.143,155.242,50.67"/>
<path fill="red" d="M171.236,14.869c-0.416-2.4-4.407-2.592-4.668-2.558c-0.572-1.985-2.103-2.558-5.273-2.204
	c-5.969,0.543-10.373,5.043-11.203,7.598c-1.085,2.3-0.191,4.956,1.191,6.123c-0.434,2.83,0.837,3.989,1.607,3.786
	c1.092,0,1.092-1.439,1.473-1.788c1.896,0.664,3.334,0.627,5.162,0.478C163.922,25.759,172.45,20.682,171.236,14.869z
	 M153.032,20.697c-0.771-0.88-0.572-2.102,0.313-3.18c0.963-1.473,3.699-3.458,6.465-3.165
	C159.811,14.352,155.807,16.684,153.032,20.697z M168.12,18.058c-0.966,1.834-3.265,3.119-5.06,3.836
	c-1.597,0.509-3.885,1.22-6.388,0.56c2.655-3.632,5.972-7.174,9.992-7.332C169.003,15.088,168.582,17.084,168.12,18.058z"/>
<path fill="red" d="M239.71,32.333c-4.706,2.848-8.299,7.559-11.632,12.091c-1.991-3.351,2.975-8.375,4.126-12.015
	c0.383-2.047,1.231-4.206-1.704-1.646c-0.443,0.382-2.102,2.225-3.378,4.467c-2.3,3.626-4.246,8.998-1.847,13.086
	c-1.478,3.938-2.726,7.947-3.676,12.063c-0.584,2.507-1.794,6.089-0.613,7.826c0.636,1.276,4.121,4.526,4.441,2.097
	c0,0,0.73-6.64,4.657-17.437c2.097,0.054,4.506-0.334,6.233-0.967c3.182-0.896,6.734-4.905,7.468-6.494
	C248.137,38.779,244.129,29.772,239.71,32.333z M242.352,40.753c-0.562,1.946-2.929,5.746-9.099,6.595
	c1.022-2.71,6.265-10.46,8.244-11.098C242.645,35.548,243.031,38.999,242.352,40.753z"/>
</svg>
